<?xml version="1.0" encoding="UTF-8" standalone="no"?><!-- Generator: Gravit.io --><svg xmlns="http://www.w3.org/2000/svg" xmlns:xlink="http://www.w3.org/1999/xlink" style="isolation:isolate" viewBox="0 0 24 23.406" width="24pt" height="23.406pt"><defs><clipPath id="_clipPath_K6rAfuY4TejenqtCwugmC9aaczKNbBdT"><rect width="24" height="23.406"/></clipPath></defs><g clip-path="url(#_clipPath_K6rAfuY4TejenqtCwugmC9aaczKNbBdT)"><path d=" M 12 0 C 5.37 0 0 5.373 0 12 C 0 17.303 3.438 21.8 8.205 23.385 C 8.805 23.498 9.025 23.127 9.025 22.808 C 9.025 22.523 9.015 21.768 9.01 20.768 C 5.672 21.492 4.968 19.158 4.968 19.158 C 4.422 17.773 3.633 17.403 3.633 17.403 C 2.546 16.659 3.717 16.674 3.717 16.674 C 4.922 16.758 5.555 17.91 5.555 17.91 C 6.625 19.745 8.364 19.215 9.05 18.908 C 9.158 18.132 9.467 17.603 9.81 17.303 C 7.145 17.003 4.344 15.971 4.344 11.373 C 4.344 10.063 4.809 8.993 5.579 8.153 C 5.444 7.85 5.039 6.63 5.684 4.977 C 5.684 4.977 6.689 4.655 8.984 6.207 C 9.944 5.94 10.964 5.808 11.984 5.802 C 13.004 5.808 14.024 5.94 14.984 6.207 C 17.264 4.655 18.269 4.977 18.269 4.977 C 18.914 6.63 18.509 7.85 18.389 8.153 C 19.154 8.993 19.619 10.063 19.619 11.373 C 19.619 15.983 16.814 16.998 14.144 17.293 C 14.564 17.653 14.954 18.389 14.954 19.513 C 14.954 21.119 14.939 22.409 14.939 22.799 C 14.939 23.114 15.149 23.489 15.764 23.369 C 20.565 21.795 24 17.295 24 12 C 24 5.373 18.627 0 12 0 Z " fill="rgb(0,110,189)"/><g><path d=" M 12.636 16.276 L 12.293 15.932 L 12.288 15.693 C 13.211 15.623 14.112 15.236 14.812 14.535 C 16.374 12.973 16.374 10.441 14.812 8.879 C 13.25 7.316 10.717 7.316 9.155 8.879 C 7.593 10.441 7.593 12.973 9.155 14.535 C 9.856 15.236 10.757 15.623 11.679 15.693 L 11.675 15.932 L 11.331 16.276 L 11.335 20.623 L 12.632 20.623 L 12.636 16.276 Z  M 10.026 13.665 C 8.942 12.582 8.942 10.832 10.026 9.749 C 11.109 8.665 12.858 8.665 13.942 9.749 C 15.025 10.832 15.025 12.582 13.942 13.665 C 12.858 14.749 11.109 14.749 10.026 13.665 Z " fill="rgb(86,158,210)"/></g><g><path d=" M 9.538 9.241 L 14.462 9.241 L 14.462 14.165 L 9.538 14.165 L 9.538 9.241 Z " fill="none"/><path d=" M 12 10.164 C 10.974 10.164 10.098 10.802 9.743 11.703 C 10.098 12.604 10.974 13.242 12 13.242 C 13.026 13.242 13.902 12.604 14.257 11.703 C 13.902 10.802 13.026 10.164 12 10.164 Z  M 12 12.729 C 11.434 12.729 10.974 12.269 10.974 11.703 C 10.974 11.137 11.434 10.677 12 10.677 C 12.566 10.677 13.026 11.137 13.026 11.703 C 13.026 12.269 12.566 12.729 12 12.729 Z  M 12 11.087 C 11.659 11.087 11.384 11.362 11.384 11.703 C 11.384 12.043 11.659 12.318 12 12.318 C 12.341 12.318 12.616 12.043 12.616 11.703 C 12.616 11.362 12.341 11.087 12 11.087 Z " fill="rgb(66,49,49)"/></g></g></svg>