<?xml version="1.0" encoding="UTF-8" standalone="no"?><!-- Generator: Gravit.io --><svg xmlns="http://www.w3.org/2000/svg" xmlns:xlink="http://www.w3.org/1999/xlink" style="isolation:isolate" viewBox="0 0 41.475 41.475" width="41.475pt" height="41.475pt"><defs><clipPath id="_clipPath_Pi2Bch9RatAWJOpD66DoSoRRbEOJxydY"><rect width="41.475" height="41.475"/></clipPath></defs><g clip-path="url(#_clipPath_Pi2Bch9RatAWJOpD66DoSoRRbEOJxydY)"><path d=" M 20.738 8.738 C 14.108 8.738 8.738 14.111 8.738 20.738 C 8.738 26.041 12.176 30.538 16.943 32.123 C 17.543 32.236 17.763 31.865 17.763 31.546 C 17.763 31.261 17.753 30.506 17.748 29.506 C 14.41 30.23 13.706 27.896 13.706 27.896 C 13.16 26.511 12.371 26.141 12.371 26.141 C 11.284 25.397 12.455 25.412 12.455 25.412 C 13.66 25.496 14.293 26.648 14.293 26.648 C 15.363 28.483 17.102 27.953 17.788 27.646 C 17.896 26.87 18.205 26.341 18.548 26.041 C 15.883 25.741 13.082 24.709 13.082 20.111 C 13.082 18.801 13.547 17.731 14.317 16.891 C 14.182 16.588 13.777 15.368 14.422 13.715 C 14.422 13.715 15.427 13.393 17.722 14.945 C 18.682 14.678 19.702 14.546 20.722 14.54 C 21.742 14.546 22.762 14.678 23.722 14.945 C 26.002 13.393 27.007 13.715 27.007 13.715 C 27.652 15.368 27.247 16.588 27.127 16.891 C 27.892 17.731 28.357 18.801 28.357 20.111 C 28.357 24.721 25.552 25.736 22.882 26.031 C 23.302 26.391 23.692 27.127 23.692 28.251 C 23.692 29.857 23.677 31.147 23.677 31.537 C 23.677 31.852 23.887 32.227 24.502 32.107 C 29.303 30.533 32.738 26.033 32.738 20.738 C 32.738 14.111 27.365 8.738 20.738 8.738 Z " fill="rgb(24,23,23)"/><g><path d=" M 0 0.115 L 41.475 0.115 L 41.475 41.475 L 0 41.475 L 0 0.115 Z " fill="none"/><path d=" M 37.592 18.852 C 36.725 10.991 30.484 4.751 22.623 3.884 L 22.623 0 L 18.852 0 L 18.852 3.884 C 10.991 4.751 4.751 10.991 3.884 18.852 L 0 18.852 L 0 22.623 L 3.884 22.623 C 4.751 30.484 10.991 36.725 18.852 37.592 L 18.852 41.475 L 22.623 41.475 L 22.623 37.592 C 30.484 36.725 36.725 30.484 37.592 22.623 L 41.475 22.623 L 41.475 18.852 L 37.592 18.852 Z  M 20.738 33.934 C 13.442 33.934 7.541 28.034 7.541 20.738 C 7.541 13.442 13.442 7.541 20.738 7.541 C 28.034 7.541 33.934 13.442 33.934 20.738 C 33.934 28.034 28.034 33.934 20.738 33.934 Z " fill="rgb(24,23,23)" fill-opacity="0.25"/></g></g></svg>