<?xml version="1.0" standalone="no"?>
<!DOCTYPE svg PUBLIC "-//W3C//DTD SVG 20010904//EN"
 "http://www.w3.org/TR/2001/REC-SVG-20010904/DTD/svg10.dtd">
<svg version="1.0" xmlns="http://www.w3.org/2000/svg"
 width="1024.000000pt" height="1024.000000pt" viewBox="0 0 1024.000000 1024.000000"
 preserveAspectRatio="xMidYMid meet">
<metadata>
Created by potrace 1.14, written by Peter Selinger 2001-2017
</metadata>
<g transform="translate(0.000000,1024.000000) scale(0.100000,-0.100000)"
fill="#000000" stroke="none">
<path d="M4859 10106 c-2 -2 -53 -7 -114 -11 -60 -4 -123 -8 -140 -11 -16 -2
-55 -6 -85 -9 -30 -3 -66 -8 -80 -10 -53 -10 -87 -15 -130 -19 -25 -3 -58 -9
-75 -14 -16 -4 -37 -8 -45 -7 -8 1 -19 -2 -25 -5 -5 -3 -17 -6 -25 -5 -8 1
-26 -3 -39 -7 -13 -5 -39 -10 -58 -13 -20 -2 -43 -7 -53 -10 -10 -3 -28 -8
-39 -10 -12 -3 -30 -7 -42 -10 -11 -2 -29 -7 -39 -10 -10 -3 -27 -7 -37 -9
-10 -2 -38 -9 -63 -16 -25 -7 -49 -13 -55 -15 -5 -1 -17 -5 -25 -8 -8 -3 -35
-12 -60 -18 -54 -15 -51 -14 -70 -22 -8 -3 -31 -10 -50 -16 -32 -9 -185 -63
-220 -78 -8 -3 -19 -7 -25 -9 -5 -1 -37 -14 -70 -29 -33 -15 -61 -27 -62 -26
-7 1 -314 -140 -343 -158 -8 -5 -44 -24 -80 -43 -36 -18 -66 -36 -68 -40 -2
-5 -8 -8 -12 -8 -14 0 -304 -172 -320 -190 -3 -3 -32 -23 -65 -44 -94 -62
-367 -266 -395 -296 -3 -3 -36 -32 -75 -65 -140 -120 -330 -305 -440 -429 -33
-37 -73 -82 -90 -100 -39 -44 -58 -66 -133 -161 -35 -44 -69 -87 -75 -95 -7
-8 -23 -31 -37 -50 -13 -19 -27 -37 -30 -40 -5 -5 -35 -47 -55 -79 -6 -9 -45
-68 -86 -131 -42 -63 -85 -131 -95 -150 -10 -19 -22 -37 -25 -40 -4 -3 -16
-25 -29 -49 -12 -25 -29 -51 -36 -59 -8 -7 -14 -22 -14 -32 0 -10 -4 -20 -9
-22 -16 -6 -177 -341 -241 -503 -17 -44 -36 -89 -41 -100 -14 -30 -108 -304
-113 -329 -5 -22 -45 -161 -54 -186 -3 -8 -4 -19 -3 -23 0 -4 -3 -16 -8 -25
-5 -9 -12 -30 -15 -47 -3 -16 -10 -49 -16 -73 -5 -23 -13 -59 -16 -80 -3 -20
-8 -41 -11 -45 -2 -4 -6 -20 -8 -35 -2 -15 -10 -67 -19 -117 -9 -49 -18 -108
-21 -130 -3 -22 -8 -53 -10 -70 -3 -16 -7 -51 -10 -77 -3 -27 -7 -69 -10 -95
-27 -247 -27 -807 -1 -1008 2 -16 7 -59 11 -95 6 -63 30 -229 41 -280 10 -49
17 -95 18 -117 1 -13 5 -23 10 -23 5 0 7 -2 4 -6 -3 -3 -2 -22 3 -42 5 -20 14
-57 19 -82 16 -69 26 -112 40 -165 6 -22 13 -48 15 -59 14 -60 91 -295 99
-303 3 -4 6 -15 6 -25 0 -10 4 -26 9 -36 9 -17 120 -289 125 -307 17 -59 221
-460 267 -527 11 -14 19 -29 19 -33 0 -3 14 -26 30 -50 17 -24 30 -46 30 -49
0 -5 60 -98 69 -106 4 -3 12 -17 19 -31 8 -14 25 -39 38 -54 13 -15 24 -32 24
-36 0 -4 6 -14 13 -21 7 -7 28 -35 47 -63 43 -63 260 -333 325 -404 124 -136
371 -377 486 -473 24 -21 58 -49 74 -63 75 -65 348 -267 434 -320 9 -6 42 -27
74 -48 31 -20 61 -37 66 -37 5 0 11 -4 13 -8 3 -8 164 -104 218 -130 14 -7 53
-28 88 -46 34 -19 62 -31 62 -28 0 4 4 2 8 -5 8 -13 198 -103 218 -103 8 0 14
-4 14 -10 0 -5 8 -10 18 -10 10 0 22 -4 27 -9 10 -8 235 -97 310 -122 22 -7
46 -17 53 -22 19 -15 164 -17 209 -4 52 16 104 52 129 91 42 63 45 108 40 571
-2 242 -4 443 -5 446 -1 3 -40 -3 -88 -12 -49 -10 -115 -21 -148 -25 -33 -3
-73 -8 -90 -10 -44 -5 -313 -6 -360 0 -36 4 -84 11 -140 21 -158 27 -374 117
-500 208 -81 60 -225 196 -225 215 0 6 -4 12 -8 12 -14 0 -119 167 -114 182 1
5 -2 8 -8 8 -5 0 -10 6 -10 13 0 7 -9 30 -20 52 -11 22 -20 47 -20 57 0 10 -5
18 -12 18 -6 0 -8 3 -5 6 7 7 -88 200 -132 269 -37 58 -131 185 -155 211 -12
12 -28 30 -37 40 -36 43 -180 163 -187 156 -11 -11 -202 154 -202 174 0 7 -5
14 -10 16 -6 2 -12 14 -15 28 -15 78 114 127 286 107 117 -13 265 -72 389
-155 57 -38 260 -232 260 -248 0 -5 11 -21 25 -36 14 -15 25 -30 25 -33 0 -6
110 -177 119 -185 4 -3 18 -21 32 -40 53 -70 137 -149 229 -215 60 -44 179
-105 204 -105 8 0 17 -4 20 -8 4 -8 26 -14 136 -38 53 -11 99 -15 200 -15 124
1 178 6 285 32 22 5 49 12 59 14 30 7 89 26 111 35 11 5 42 16 68 26 59 21 60
23 72 106 17 123 115 373 171 439 8 8 14 19 14 23 0 7 6 14 80 94 45 49 45 48
28 50 -36 3 -107 12 -138 17 -19 3 -48 7 -65 9 -48 6 -202 35 -305 58 -52 11
-97 21 -100 21 -3 -1 -16 4 -30 9 -14 5 -32 11 -41 13 -86 18 -370 121 -449
164 -8 4 -49 25 -90 46 -41 22 -86 46 -100 56 -14 9 -52 34 -85 55 -65 42
-121 83 -175 129 -55 48 -203 197 -230 234 -14 18 -30 38 -35 44 -6 7 -22 28
-35 47 -13 19 -28 40 -32 45 -26 32 -68 102 -68 113 0 6 -4 12 -8 12 -5 0 -14
16 -22 35 -8 19 -17 35 -22 35 -4 0 -7 3 -6 8 2 10 -25 66 -37 74 -5 4 -7 8
-2 8 4 0 -2 19 -14 41 -11 23 -22 49 -24 58 -3 9 -16 48 -31 86 -34 89 -59
177 -85 290 -28 121 -29 126 -33 160 -3 17 -7 44 -10 60 -8 53 -20 139 -22
170 -1 17 -6 77 -10 135 -18 238 -7 537 26 695 6 28 13 61 15 75 3 14 8 36 12
50 3 14 7 30 8 36 23 108 155 406 225 510 16 25 30 49 30 54 0 4 3 10 8 12 4
2 19 21 35 44 15 22 35 49 45 60 9 10 29 35 43 54 15 19 36 45 47 56 l21 22
-30 92 c-36 112 -76 319 -70 368 0 6 1 20 0 30 -5 148 4 372 16 392 2 3 6 24
9 46 8 52 14 81 41 190 10 38 23 75 29 83 6 8 10 16 8 18 -2 2 7 35 19 73 26
78 12 71 146 74 39 1 105 -4 145 -11 40 -7 82 -15 93 -16 11 -2 27 -6 35 -9 8
-4 39 -12 68 -18 28 -7 55 -16 58 -21 3 -5 13 -9 23 -9 16 0 66 -17 146 -50
11 -5 55 -25 97 -44 43 -20 79 -36 82 -36 2 0 53 -27 112 -60 59 -33 109 -60
111 -60 7 0 188 -115 191 -122 2 -5 8 -8 14 -8 5 0 28 -13 51 -30 43 -30 73
-37 117 -25 14 3 32 8 40 10 8 2 15 4 15 5 0 1 11 4 25 6 14 3 63 14 110 26
47 11 99 22 115 23 17 2 44 6 60 10 49 10 68 13 115 20 25 3 59 8 75 11 28 4
47 6 165 19 268 29 682 34 915 10 209 -21 299 -32 325 -40 8 -2 36 -6 62 -9
26 -3 60 -9 75 -12 15 -4 39 -8 53 -10 14 -1 25 -3 25 -4 0 -3 54 -14 115 -25
19 -3 46 -10 60 -15 14 -5 39 -11 55 -14 17 -3 45 -9 64 -15 31 -10 39 -7 115
43 170 111 494 295 516 293 3 0 24 10 47 22 23 11 49 21 58 21 8 0 15 5 15 10
0 6 8 10 18 10 9 0 28 6 42 13 14 7 52 21 85 31 33 10 65 21 70 25 6 3 15 6
20 6 35 4 95 19 95 24 0 3 12 7 28 8 58 5 87 9 97 14 15 7 208 4 221 -4 12 -7
50 -110 79 -208 15 -55 21 -80 31 -129 3 -14 7 -33 10 -43 3 -10 7 -30 9 -45
2 -15 6 -40 9 -57 31 -178 26 -480 -10 -635 -3 -14 -8 -36 -10 -50 -2 -14 -16
-62 -31 -107 l-26 -83 45 -52 c64 -75 158 -205 158 -217 0 -6 4 -11 8 -11 9 0
29 -36 97 -170 87 -172 163 -395 180 -530 2 -14 6 -36 9 -49 21 -92 28 -530
12 -706 -12 -130 -23 -221 -32 -270 -3 -11 -7 -36 -10 -55 -21 -142 -109 -441
-155 -532 -5 -10 -9 -25 -9 -33 0 -8 -4 -15 -10 -15 -5 0 -10 -8 -10 -18 0
-10 -7 -27 -15 -38 -8 -10 -15 -27 -15 -36 0 -10 -4 -18 -9 -18 -5 0 -14 -12
-20 -27 -6 -16 -22 -46 -36 -68 -14 -22 -28 -48 -31 -57 -4 -10 -9 -18 -13
-18 -4 0 -15 -16 -25 -35 -11 -19 -23 -35 -28 -35 -4 0 -8 -6 -8 -13 0 -7 -12
-26 -27 -44 -16 -17 -44 -50 -63 -73 -77 -93 -220 -223 -330 -299 -36 -25 -66
-49 -68 -53 -2 -4 -8 -8 -13 -8 -5 0 -37 -17 -72 -38 -96 -58 -235 -123 -386
-179 -92 -35 -275 -91 -316 -98 -11 -1 -49 -10 -85 -18 -36 -9 -81 -19 -100
-22 -19 -3 -44 -8 -54 -11 -10 -4 -35 -8 -55 -9 -20 -2 -36 -4 -36 -5 0 -1 -9
-3 -20 -5 -52 -7 -114 -16 -150 -21 -22 -2 -49 -6 -60 -9 -11 -2 -29 -4 -40
-4 -16 -1 -11 -9 26 -49 128 -133 227 -338 265 -549 4 -23 9 -48 21 -108 4
-16 7 -408 8 -870 1 -824 2 -841 22 -885 43 -95 120 -142 230 -141 80 0 75 -1
180 35 45 15 84 26 85 24 2 -1 14 5 28 15 13 9 30 17 38 17 7 0 32 9 54 20 23
11 46 20 50 20 9 0 65 24 176 75 28 14 53 24 55 24 1 -1 28 13 60 30 31 17 64
31 72 31 8 0 19 8 24 17 6 10 11 15 11 11 0 -4 28 8 62 27 35 19 74 40 88 47
14 7 49 27 78 45 29 18 55 33 57 33 3 0 36 20 75 45 39 25 75 45 80 45 6 0 10
5 10 10 0 6 8 14 17 17 44 17 399 277 490 360 24 21 51 45 62 53 52 41 341
316 341 324 0 2 21 25 48 53 64 66 130 140 172 192 19 24 45 55 57 70 34 39
34 39 107 136 37 50 73 97 79 105 7 8 30 42 51 75 22 33 42 62 45 65 13 11 81
120 81 130 0 5 5 10 10 10 6 0 10 7 10 15 0 8 4 15 8 15 5 0 14 16 22 35 8 19
17 35 22 35 4 0 8 7 8 15 0 8 5 15 11 15 5 0 7 5 4 10 -3 5 -2 10 2 10 5 0 17
20 28 45 11 25 24 45 28 45 5 0 6 4 3 9 -4 5 -2 11 2 13 25 10 220 433 297
643 26 72 51 139 55 150 8 17 22 60 25 75 1 3 11 38 24 79 12 41 24 81 26 90
2 9 8 28 13 42 6 14 13 43 16 63 4 21 8 41 11 45 2 4 6 18 9 32 2 13 12 56 21
94 9 39 19 81 21 95 2 14 11 59 19 100 25 138 40 234 51 336 3 32 7 73 10 89
26 208 26 769 -1 1005 -2 19 -6 58 -9 85 -2 28 -7 68 -11 90 -4 22 -8 56 -10
75 -1 19 -5 46 -8 60 -4 14 -8 39 -11 55 -3 17 -9 55 -15 85 -6 30 -13 66 -16
80 -7 35 -19 94 -20 100 -1 3 -5 23 -10 45 -4 22 -10 44 -13 50 -3 5 -7 16 -8
25 -3 19 -10 48 -33 130 -7 25 -15 56 -18 70 -2 13 -7 27 -11 30 -4 3 -8 14
-10 25 -1 12 -16 59 -32 105 -17 47 -32 94 -35 105 -2 11 -11 36 -19 55 -7 19
-26 67 -41 105 -54 137 -88 212 -172 385 -47 96 -91 178 -97 182 -6 4 -7 8 -3
8 5 0 0 12 -11 28 -11 15 -23 37 -26 50 -4 12 -12 22 -17 22 -5 0 -9 5 -9 10
0 27 -265 431 -322 492 -10 10 -18 20 -18 23 0 3 -4 11 -10 18 -6 6 -24 30
-41 52 -48 63 -83 107 -94 119 -6 6 -37 42 -70 80 -131 153 -293 319 -435 446
-46 41 -90 82 -99 90 -9 8 -39 33 -66 55 -28 22 -52 42 -55 45 -3 3 -45 37
-95 75 -49 39 -91 73 -93 77 -2 5 -8 8 -13 8 -9 0 -68 38 -79 51 -12 14 -220
149 -230 149 -5 0 -10 3 -10 8 0 7 -10 13 -66 42 -16 8 -31 17 -34 21 -5 6
-84 50 -165 93 -22 12 -42 23 -45 26 -3 3 -12 6 -20 8 -8 2 -17 8 -18 13 -2 5
-8 7 -13 3 -5 -3 -9 0 -9 5 0 6 -4 11 -9 11 -5 0 -65 26 -133 59 -68 32 -163
75 -213 95 -49 20 -99 41 -110 46 -20 10 -182 69 -200 74 -5 1 -35 11 -65 21
-30 11 -58 20 -62 21 -5 1 -9 2 -10 3 -2 2 -14 4 -28 7 -14 2 -32 7 -40 11 -8
3 -18 7 -22 8 -5 2 -11 4 -15 5 -5 1 -12 3 -18 5 -5 1 -12 3 -15 4 -3 2 -12 4
-20 6 -8 2 -69 17 -135 34 -66 16 -131 32 -145 35 -14 3 -36 8 -50 11 -42 9
-193 36 -230 41 -19 2 -44 6 -55 9 -11 2 -47 7 -79 11 -33 3 -69 8 -80 10 -12
2 -52 6 -91 9 -38 4 -88 8 -110 11 -47 6 -651 15 -656 10z"/>
<path d="M4969 6816 c-2 -2 -29 -6 -59 -10 -103 -10 -289 -51 -345 -75 -11 -5
-54 -21 -95 -37 -41 -15 -82 -34 -92 -42 -9 -7 -22 -14 -30 -16 -7 -1 -40 -17
-73 -36 -33 -19 -64 -37 -70 -39 -5 -2 -43 -29 -85 -60 -196 -145 -346 -307
-467 -506 -47 -76 -143 -275 -143 -294 0 -6 -5 -22 -12 -38 -6 -15 -12 -34
-14 -41 -1 -7 -9 -36 -18 -65 -9 -28 -18 -64 -21 -79 -21 -117 -24 -134 -31
-208 -8 -81 -11 -250 -4 -250 3 0 4 -25 4 -55 -1 -30 1 -55 5 -55 3 0 6 -15 6
-32 -1 -18 3 -49 7 -68 5 -19 11 -46 14 -60 18 -90 56 -211 89 -287 35 -81
120 -243 127 -243 4 0 8 -5 8 -11 0 -9 38 -69 77 -119 73 -94 174 -203 243
-261 23 -19 53 -44 68 -57 23 -20 55 -41 192 -132 85 -56 365 -168 463 -186
18 -3 50 -9 72 -14 35 -8 122 -20 180 -25 17 -1 19 -8 16 -56 -3 -52 -5 -56
-75 -125 l-71 -71 0 -921 c1 -507 4 -924 8 -928 7 -8 535 -9 543 -2 2 2 4 420
4 928 l1 923 -72 73 c-68 68 -71 74 -74 123 -3 46 0 52 19 57 12 3 26 4 32 3
11 -3 95 10 179 27 17 4 38 7 48 8 9 0 17 5 17 10 0 5 3 7 6 4 5 -5 63 10 114
29 8 4 17 7 20 7 26 6 138 52 151 63 8 7 21 13 27 13 12 0 122 58 132 70 3 3
17 11 32 19 51 26 194 140 275 218 138 134 239 268 326 434 38 73 95 203 102
234 1 5 5 17 8 25 7 20 30 93 33 105 5 22 13 61 19 85 3 14 8 41 10 60 3 19 8
55 12 80 15 98 8 394 -12 490 -2 14 -10 50 -16 80 -10 54 -14 68 -45 165 -37
119 -113 279 -186 388 -21 32 -38 63 -38 68 0 5 -3 9 -7 9 -5 0 -19 17 -33 38
-32 48 -58 77 -155 174 -71 71 -264 228 -280 228 -4 0 -25 13 -48 28 -78 52
-301 154 -367 167 -8 2 -51 13 -95 24 -134 35 -182 41 -391 46 -89 3 -163 3
-165 1z m301 -529 c19 -2 44 -7 55 -10 11 -3 31 -8 45 -11 72 -14 85 -18 104
-28 12 -6 23 -11 26 -11 9 1 35 -9 76 -28 23 -10 45 -19 49 -19 10 0 174 -99
196 -119 10 -9 49 -43 86 -76 84 -73 223 -245 223 -275 0 -6 5 -10 10 -10 6 0
10 -4 10 -9 0 -5 18 -48 40 -95 22 -47 40 -94 40 -104 0 -10 4 -22 9 -27 10
-12 38 -136 48 -215 12 -97 6 -260 -12 -355 -20 -101 -71 -248 -116 -329 -15
-28 -35 -66 -45 -83 -9 -18 -20 -33 -25 -33 -5 0 -9 -7 -9 -15 0 -8 -4 -15 -8
-15 -4 0 -15 -13 -25 -29 -29 -50 -200 -214 -256 -245 -9 -5 -18 -13 -21 -17
-7 -9 -196 -110 -212 -113 -7 -1 -23 -8 -35 -14 -13 -7 -23 -10 -23 -7 0 3 -8
1 -18 -4 -11 -6 -32 -13 -48 -16 -33 -7 -42 -10 -64 -18 -8 -3 -24 -6 -35 -7
-11 0 -32 -2 -47 -2 -16 -1 -28 -5 -28 -9 0 -8 -270 -4 -330 5 -25 4 -70 14
-100 22 -30 8 -62 17 -70 19 -75 19 -209 84 -310 151 -59 39 -223 190 -268
248 -51 65 -117 178 -155 266 -29 67 -72 205 -69 221 1 4 -3 22 -9 40 -18 56
-19 284 -3 384 19 117 59 250 97 320 6 11 22 43 36 70 14 28 28 52 31 55 3 3
23 31 45 63 81 119 250 269 397 351 50 28 185 84 222 92 38 9 51 12 51 14 0 3
39 10 67 13 16 1 28 5 28 8 0 3 10 5 22 4 12 -1 36 1 53 5 29 6 202 4 275 -3z"/>
<path d="M4935 5755 c-106 -23 -115 -25 -168 -45 -69 -27 -161 -72 -165 -82
-2 -4 -8 -8 -13 -8 -12 0 -102 -62 -135 -92 -74 -68 -114 -110 -114 -118 0 -6
-4 -10 -9 -10 -13 0 -105 -138 -140 -211 -31 -65 -35 -109 -10 -125 5 -3 9
-14 9 -25 0 -10 5 -19 10 -19 6 0 10 -5 10 -11 0 -7 24 -48 54 -93 70 -104
155 -192 246 -256 19 -14 37 -28 40 -31 3 -3 12 -9 20 -12 8 -4 31 -17 50 -28
69 -43 201 -91 315 -115 62 -14 220 -18 306 -9 292 33 571 203 735 450 50 75
94 158 99 187 7 33 -103 248 -126 248 -4 0 -10 8 -13 18 -11 33 -136 153 -224
216 -93 66 -268 146 -357 162 -11 2 -42 8 -70 13 -71 13 -279 11 -350 -4z
m293 -218 c6 -5 12 -6 12 -2 0 4 7 1 17 -6 9 -8 18 -13 20 -11 8 7 91 -40 130
-73 159 -136 195 -390 80 -569 -20 -33 -103 -116 -115 -116 -5 0 -12 -3 -14
-7 -5 -12 -64 -43 -82 -43 -9 0 -16 -4 -16 -8 0 -10 -9 -12 -67 -15 -24 -1
-43 -4 -43 -7 0 -3 -18 -5 -40 -5 -22 0 -40 2 -40 5 0 3 -12 6 -27 7 -74 3
-235 99 -267 158 -6 11 -14 22 -18 25 -12 10 -57 114 -66 155 -21 98 7 251 61
329 50 72 165 162 220 172 4 1 9 3 12 4 3 1 9 3 14 4 5 0 12 4 16 8 11 11 198
7 213 -5z"/>
<path d="M5045 5366 c-151 -47 -225 -206 -166 -356 21 -51 102 -127 153 -142
99 -28 187 -12 258 49 57 49 79 97 94 198 4 26 -19 100 -44 141 -59 94 -189
143 -295 110z"/>
</g>
</svg>
